<mxfile host="" modified="2021-01-25T17:11:58.334Z" agent="5.0 (Macintosh; Intel Mac OS X 10_16_0) AppleWebKit/537.36 (KHTML, like Gecko) Chrome/84.0.4147.105 Safari/537.36" etag="AqBT8U0wAj8QgK3SMRz2" version="13.7.9" type="embed"><diagram id="COS3l3NjJ4jujUteg-Ye" name="Page-1"><mxGraphModel dx="3902" dy="3269" grid="1" gridSize="10" guides="1" tooltips="1" connect="1" arrows="1" fold="1" page="1" pageScale="1" pageWidth="827" pageHeight="1169" background="#F1FAEE" math="0" shadow="0"><root><mxCell id="0"/><mxCell id="1" parent="0"/><mxCell id="3Pk_cix0iTYeB5StXu58-9" value="" style="group;fontColor=#1D3557;" parent="1" vertex="1" connectable="0"><mxGeometry x="1390" y="-150" width="800" height="1040" as="geometry"/></mxCell><mxCell id="qyVh3rpGEpG33U29JIsT-30" value="" style="rounded=0;whiteSpace=wrap;html=1;fillColor=none;fontSize=19;strokeColor=#457B9D;fontColor=#1D3557;" parent="3Pk_cix0iTYeB5StXu58-9" vertex="1"><mxGeometry width="800" height="1040" as="geometry"/></mxCell><mxCell id="3Pk_cix0iTYeB5StXu58-2" value="" style="shape=note;whiteSpace=wrap;html=1;backgroundOutline=1;darkOpacity=0.05;fontSize=19;fillColor=#A8DADC;strokeColor=#457B9D;fontColor=#1D3557;" parent="3Pk_cix0iTYeB5StXu58-9" vertex="1"><mxGeometry y="740" width="800" height="300" as="geometry"/></mxCell><mxCell id="qyVh3rpGEpG33U29JIsT-3" value="&lt;font style=&quot;font-size: 32px&quot;&gt;Server Java Application&lt;/font&gt;" style="rounded=0;whiteSpace=wrap;html=1;fontSize=21;fillColor=#A8DADC;strokeColor=#457B9D;fontColor=#1D3557;" parent="3Pk_cix0iTYeB5StXu58-9" vertex="1"><mxGeometry x="100" y="230" width="330" height="360" as="geometry"/></mxCell><mxCell id="qyVh3rpGEpG33U29JIsT-4" value="User Data" style="shape=cylinder3;whiteSpace=wrap;html=1;boundedLbl=1;backgroundOutline=1;size=15;fontSize=32;fillColor=#A8DADC;strokeColor=#457B9D;fontColor=#1D3557;" parent="3Pk_cix0iTYeB5StXu58-9" vertex="1"><mxGeometry x="100" y="30" width="330" height="160" as="geometry"/></mxCell><mxCell id="qyVh3rpGEpG33U29JIsT-20" value="" style="endArrow=classic;html=1;fontSize=19;exitX=0.5;exitY=1;exitDx=0;exitDy=0;exitPerimeter=0;labelBackgroundColor=#F1FAEE;strokeColor=#457B9D;fontColor=#1D3557;" parent="3Pk_cix0iTYeB5StXu58-9" source="qyVh3rpGEpG33U29JIsT-4" target="qyVh3rpGEpG33U29JIsT-3" edge="1"><mxGeometry width="50" height="50" relative="1" as="geometry"><mxPoint x="30" y="550" as="sourcePoint"/><mxPoint x="80" y="500" as="targetPoint"/></mxGeometry></mxCell><mxCell id="3Pk_cix0iTYeB5StXu58-11" value="" style="endArrow=classic;html=1;fontSize=24;exitX=0.25;exitY=1;exitDx=0;exitDy=0;labelBackgroundColor=#F1FAEE;strokeColor=#457B9D;fontColor=#1D3557;" parent="3Pk_cix0iTYeB5StXu58-9" source="qyVh3rpGEpG33U29JIsT-3" edge="1"><mxGeometry width="50" height="50" relative="1" as="geometry"><mxPoint x="50" y="580" as="sourcePoint"/><mxPoint x="181" y="739" as="targetPoint"/></mxGeometry></mxCell><mxCell id="3Pk_cix0iTYeB5StXu58-12" value="" style="endArrow=classic;html=1;fontSize=24;exitX=0.436;exitY=-0.003;exitDx=0;exitDy=0;exitPerimeter=0;entryX=0.75;entryY=1;entryDx=0;entryDy=0;labelBackgroundColor=#F1FAEE;strokeColor=#457B9D;fontColor=#1D3557;" parent="3Pk_cix0iTYeB5StXu58-9" source="3Pk_cix0iTYeB5StXu58-2" target="qyVh3rpGEpG33U29JIsT-3" edge="1"><mxGeometry width="50" height="50" relative="1" as="geometry"><mxPoint x="192.5" y="600" as="sourcePoint"/><mxPoint x="191" y="749" as="targetPoint"/></mxGeometry></mxCell><mxCell id="3Pk_cix0iTYeB5StXu58-19" value="Client's Files" style="text;html=1;align=center;verticalAlign=middle;resizable=0;points=[];autosize=1;fontSize=32;fontColor=#1D3557;" parent="3Pk_cix0iTYeB5StXu58-9" vertex="1"><mxGeometry x="274" y="760" width="200" height="40" as="geometry"/></mxCell><mxCell id="3Pk_cix0iTYeB5StXu58-41" value="" style="shape=note;whiteSpace=wrap;html=1;backgroundOutline=1;darkOpacity=0.05;fontSize=32;fillColor=#A8DADC;strokeColor=#457B9D;fontColor=#1D3557;" parent="3Pk_cix0iTYeB5StXu58-9" vertex="1"><mxGeometry x="220" y="840" width="80" height="100" as="geometry"/></mxCell><mxCell id="3Pk_cix0iTYeB5StXu58-55" value="" style="shape=note;whiteSpace=wrap;html=1;backgroundOutline=1;darkOpacity=0.05;fontSize=32;fillColor=#A8DADC;strokeColor=#457B9D;fontColor=#1D3557;" parent="3Pk_cix0iTYeB5StXu58-9" vertex="1"><mxGeometry x="350" y="840" width="80" height="100" as="geometry"/></mxCell><mxCell id="3Pk_cix0iTYeB5StXu58-56" value="" style="shape=note;whiteSpace=wrap;html=1;backgroundOutline=1;darkOpacity=0.05;fontSize=32;fillColor=#A8DADC;strokeColor=#457B9D;fontColor=#1D3557;" parent="3Pk_cix0iTYeB5StXu58-9" vertex="1"><mxGeometry x="60" y="840" width="80" height="100" as="geometry"/></mxCell><mxCell id="3Pk_cix0iTYeB5StXu58-57" value="" style="shape=note;whiteSpace=wrap;html=1;backgroundOutline=1;darkOpacity=0.05;fontSize=32;fillColor=#A8DADC;strokeColor=#457B9D;fontColor=#1D3557;" parent="3Pk_cix0iTYeB5StXu58-9" vertex="1"><mxGeometry x="480" y="840" width="80" height="100" as="geometry"/></mxCell><mxCell id="3Pk_cix0iTYeB5StXu58-58" value="" style="shape=note;whiteSpace=wrap;html=1;backgroundOutline=1;darkOpacity=0.05;fontSize=32;fillColor=#A8DADC;strokeColor=#457B9D;fontColor=#1D3557;" parent="3Pk_cix0iTYeB5StXu58-9" vertex="1"><mxGeometry x="630" y="840" width="80" height="100" as="geometry"/></mxCell><mxCell id="3Pk_cix0iTYeB5StXu58-8" value="" style="group;fontColor=#1D3557;" parent="1" vertex="1" connectable="0"><mxGeometry x="-30" y="-150" width="800" height="1040" as="geometry"/></mxCell><mxCell id="3Pk_cix0iTYeB5StXu58-6" value="" style="rounded=0;whiteSpace=wrap;html=1;fillColor=none;fontSize=19;strokeColor=#457B9D;fontColor=#1D3557;" parent="3Pk_cix0iTYeB5StXu58-8" vertex="1"><mxGeometry width="800" height="1040" as="geometry"/></mxCell><mxCell id="3Pk_cix0iTYeB5StXu58-7" value="" style="shape=note;whiteSpace=wrap;html=1;backgroundOutline=1;darkOpacity=0.05;fontSize=19;fillColor=#A8DADC;strokeColor=#457B9D;fontColor=#1D3557;" parent="3Pk_cix0iTYeB5StXu58-8" vertex="1"><mxGeometry y="740" width="800" height="300" as="geometry"/></mxCell><mxCell id="qyVh3rpGEpG33U29JIsT-8" value="Client Java Application (CLI or Desktop)" style="rounded=0;whiteSpace=wrap;html=1;fontSize=32;fillColor=#A8DADC;strokeColor=#457B9D;fontColor=#1D3557;" parent="3Pk_cix0iTYeB5StXu58-8" vertex="1"><mxGeometry x="150" y="150" width="490" height="450" as="geometry"/></mxCell><mxCell id="3Pk_cix0iTYeB5StXu58-15" value="Client Files" style="text;html=1;align=center;verticalAlign=middle;resizable=0;points=[];autosize=1;fontSize=32;fontColor=#1D3557;" parent="3Pk_cix0iTYeB5StXu58-8" vertex="1"><mxGeometry x="310" y="760" width="170" height="40" as="geometry"/></mxCell><mxCell id="3Pk_cix0iTYeB5StXu58-16" value="" style="endArrow=classic;html=1;fontSize=32;exitX=0.335;exitY=0.002;exitDx=0;exitDy=0;exitPerimeter=0;entryX=0.25;entryY=1;entryDx=0;entryDy=0;labelBackgroundColor=#F1FAEE;strokeColor=#457B9D;fontColor=#1D3557;" parent="3Pk_cix0iTYeB5StXu58-8" source="3Pk_cix0iTYeB5StXu58-7" target="qyVh3rpGEpG33U29JIsT-8" edge="1"><mxGeometry width="50" height="50" relative="1" as="geometry"><mxPoint x="1030" y="460" as="sourcePoint"/><mxPoint x="1080" y="410" as="targetPoint"/></mxGeometry></mxCell><mxCell id="3Pk_cix0iTYeB5StXu58-17" value="" style="endArrow=classic;html=1;fontSize=32;exitX=0.75;exitY=1;exitDx=0;exitDy=0;entryX=0.641;entryY=0.002;entryDx=0;entryDy=0;entryPerimeter=0;labelBackgroundColor=#F1FAEE;strokeColor=#457B9D;fontColor=#1D3557;" parent="3Pk_cix0iTYeB5StXu58-8" source="qyVh3rpGEpG33U29JIsT-8" target="3Pk_cix0iTYeB5StXu58-7" edge="1"><mxGeometry width="50" height="50" relative="1" as="geometry"><mxPoint x="278.00000000000045" y="750.6000000000004" as="sourcePoint"/><mxPoint x="282.50000000000045" y="609.9999999999995" as="targetPoint"/></mxGeometry></mxCell><mxCell id="3Pk_cix0iTYeB5StXu58-52" value="" style="shape=note;whiteSpace=wrap;html=1;backgroundOutline=1;darkOpacity=0.05;fontSize=32;fillColor=#A8DADC;strokeColor=#457B9D;fontColor=#1D3557;" parent="3Pk_cix0iTYeB5StXu58-8" vertex="1"><mxGeometry x="150" y="840" width="80" height="100" as="geometry"/></mxCell><mxCell id="3Pk_cix0iTYeB5StXu58-53" value="" style="shape=note;whiteSpace=wrap;html=1;backgroundOutline=1;darkOpacity=0.05;fontSize=32;fillColor=#A8DADC;strokeColor=#457B9D;fontColor=#1D3557;" parent="3Pk_cix0iTYeB5StXu58-8" vertex="1"><mxGeometry x="280" y="840" width="80" height="100" as="geometry"/></mxCell><mxCell id="qyVh3rpGEpG33U29JIsT-6" value="Upload" style="endArrow=classic;html=1;fontSize=32;entryX=0.009;entryY=0.363;entryDx=0;entryDy=0;entryPerimeter=0;exitX=1;exitY=0.5;exitDx=0;exitDy=0;labelBackgroundColor=#F1FAEE;strokeColor=#457B9D;fontColor=#1D3557;" parent="1" source="qyVh3rpGEpG33U29JIsT-8" target="qyVh3rpGEpG33U29JIsT-3" edge="1"><mxGeometry width="50" height="50" relative="1" as="geometry"><mxPoint x="860" y="220" as="sourcePoint"/><mxPoint x="380" y="190" as="targetPoint"/></mxGeometry></mxCell><mxCell id="qyVh3rpGEpG33U29JIsT-12" value="Download" style="endArrow=classic;html=1;fontSize=32;exitX=0;exitY=0.75;exitDx=0;exitDy=0;entryX=1;entryY=0.75;entryDx=0;entryDy=0;labelBackgroundColor=#F1FAEE;strokeColor=#457B9D;fontColor=#1D3557;" parent="1" source="qyVh3rpGEpG33U29JIsT-3" target="qyVh3rpGEpG33U29JIsT-8" edge="1"><mxGeometry width="50" height="50" relative="1" as="geometry"><mxPoint x="1040" y="439.99999999999955" as="sourcePoint"/><mxPoint x="870" y="350" as="targetPoint"/></mxGeometry></mxCell><mxCell id="qyVh3rpGEpG33U29JIsT-16" value="" style="endArrow=classic;html=1;fontSize=19;entryX=0;entryY=0.086;entryDx=0;entryDy=0;entryPerimeter=0;exitX=1;exitY=0.25;exitDx=0;exitDy=0;labelBackgroundColor=#F1FAEE;strokeColor=#457B9D;fontColor=#1D3557;" parent="1" source="qyVh3rpGEpG33U29JIsT-8" target="qyVh3rpGEpG33U29JIsT-3" edge="1"><mxGeometry width="50" height="50" relative="1" as="geometry"><mxPoint x="870" y="120" as="sourcePoint"/><mxPoint x="430" y="330" as="targetPoint"/></mxGeometry></mxCell><mxCell id="3Pk_cix0iTYeB5StXu58-13" value="Autorization" style="edgeLabel;html=1;align=center;verticalAlign=middle;resizable=0;points=[];fontSize=32;labelBackgroundColor=#F1FAEE;fontColor=#1D3557;" parent="qyVh3rpGEpG33U29JIsT-16" vertex="1" connectable="0"><mxGeometry x="-0.123" y="1" relative="1" as="geometry"><mxPoint x="-1" as="offset"/></mxGeometry></mxCell><mxCell id="3Pk_cix0iTYeB5StXu58-4" value="Server Machine" style="text;html=1;align=center;verticalAlign=middle;resizable=0;points=[];autosize=1;fontSize=48;fontColor=#1D3557;" parent="1" vertex="1"><mxGeometry x="1603.5" y="-230" width="350" height="60" as="geometry"/></mxCell><mxCell id="3Pk_cix0iTYeB5StXu58-10" value="Client Machine" style="text;html=1;align=center;verticalAlign=middle;resizable=0;points=[];autosize=1;fontSize=48;fontColor=#1D3557;" parent="1" vertex="1"><mxGeometry x="205" y="-230" width="330" height="60" as="geometry"/></mxCell></root></mxGraphModel></diagram></mxfile>